<svg width="32" height="32" viewBox="0 0 32 32" fill="none" xmlns="http://www.w3.org/2000/svg">
<rect width="32" height="32" rx="16" fill="white" style="fill:white;fill-opacity:1;"/>
<path fill-rule="evenodd" clip-rule="evenodd" d="M18.7227 13.7847C18.7227 15.5551 15.9612 15.3403 15.0852 15.3403V12.2213C15.9628 12.2213 18.7227 11.9436 18.7227 13.7847ZM19.4438 18.6266C19.4438 20.5612 16.1361 20.3402 15.0821 20.3402V16.9144C16.1361 16.9144 19.4438 16.6076 19.4438 18.6343M21.6224 13.0943C21.4459 11.2379 19.8566 10.6243 17.8453 10.4309V7.88574H16.3003V10.3803C15.8907 10.3803 15.4734 10.3803 15.0576 10.3957V7.88574H13.505V10.4463H10.3553V12.1124C10.3553 12.1124 11.5029 12.0925 11.486 12.1124C11.6931 12.0896 11.901 12.1483 12.0656 12.276C12.2303 12.4037 12.3387 12.5904 12.3682 12.7967V19.8095C12.3639 19.8816 12.3454 19.9522 12.3137 20.0172C12.2821 20.0823 12.2379 20.1404 12.1837 20.1882C12.1296 20.236 12.0665 20.2728 11.9981 20.2964C11.9297 20.3197 11.8573 20.3295 11.7852 20.3248C11.8051 20.3432 10.6545 20.3248 10.6545 20.3248L10.3477 22.1858H13.4851V24.794H15.0392V22.2242H16.2803V24.7772H17.8345V22.2042C20.4595 22.0509 22.2837 21.3957 22.5198 18.9335C22.7056 16.9496 21.7758 16.066 20.2893 15.7116C21.1928 15.2514 21.7605 14.4398 21.6254 13.0897" fill="#FF9500" style="fill:#FF9500;fill:color(display-p3 1.0000 0.5843 0.0000);fill-opacity:1;"/>
<path d="M7.56639 6.64324C9.14167 5.21821 11.054 4.21802 13.1231 3.737C15.1921 3.25597 17.3495 3.31 19.3919 3.89397L19.5698 3.94461C19.6589 3.97069 19.7463 3.99831 19.8338 4.02746C19.9595 4.06735 20.0853 4.11029 20.208 4.15479L20.3307 4.19928C20.4981 4.26064 20.6653 4.32661 20.8295 4.39565L20.8493 4.40487C22.1579 4.96748 23.3739 5.72472 24.4562 6.6509L25.1405 5.91143C25.0483 5.81938 24.9533 5.735 24.8597 5.64756C22.4907 3.59533 19.4842 2.42658 16.3511 2.33984C16.1839 2.33984 16.0167 2.33984 15.8494 2.33984H15.8142C14.7979 2.35392 13.7862 2.47736 12.7964 2.70805L12.5939 2.75716L12.4251 2.80164C11.4389 3.06607 10.4857 3.44127 9.58383 3.92005C8.59628 4.45026 7.69723 5.13088 6.91895 5.93751L7.56639 6.64324Z" fill="#221D34" fill-opacity="0.6" style="fill:#221D34;fill:color(display-p3 0.1333 0.1137 0.2039);fill-opacity:0.6;"/>
<path d="M6.69995 7.50386L5.94821 6.8457C0.848571 12.1908 1.59111 20.8882 5.94821 25.0334L6.7153 24.4336C4.59449 22.1254 3.41644 19.1059 3.41388 15.9714C3.41132 12.8369 4.58445 9.81543 6.70149 7.50386H6.69995Z" fill="#221D34" fill-opacity="0.6" style="fill:#221D34;fill:color(display-p3 0.1333 0.1137 0.2039);fill-opacity:0.6;"/>
<path d="M26.3729 7.17834C26.2548 7.05561 26.1351 6.93441 26.0108 6.81934L25.3525 7.54041C29.2188 11.9328 30.0349 18.9056 25.4738 24.2738L26.1151 25.0485C28.3063 22.6023 29.5399 19.4466 29.5884 16.1628C29.6369 12.879 28.497 9.68822 26.3789 7.17834H26.3729Z" fill="#221D34" fill-opacity="0.6" style="fill:#221D34;fill:color(display-p3 0.1333 0.1137 0.2039);fill-opacity:0.6;"/>
<path d="M24.5052 25.2998C24.0602 25.6328 23.6184 25.938 23.1751 26.2203C21.5661 27.3576 19.7107 28.0977 17.7608 28.3804C16.7632 28.5395 15.7487 28.5633 14.7447 28.451C12.2159 28.2057 9.82199 27.1953 7.88226 25.5545C7.78101 25.4809 7.68129 25.4088 7.57543 25.3321L6.86816 25.9657C9.34281 28.4096 12.7349 29.5848 16.0733 29.5833C16.1469 29.5833 16.2267 29.5833 16.2943 29.5833H16.3295C19.4349 29.5024 22.4183 28.358 24.7813 26.3416C24.8887 26.2403 24.9976 26.1406 25.1004 26.0347L24.5052 25.2998Z" fill="#221D34" fill-opacity="0.6" style="fill:#221D34;fill:color(display-p3 0.1333 0.1137 0.2039);fill-opacity:0.6;"/>
<path d="M15.9939 1.07393C18.9465 1.07272 21.8331 1.94724 24.2886 3.58687C26.7442 5.22651 28.6582 7.55758 29.7888 10.2852C30.9192 13.0128 31.2154 16.0146 30.6397 18.9104C30.0638 21.8064 28.6422 24.4666 26.5544 26.5544C24.4665 28.6421 21.8064 30.0638 18.9104 30.6395C16.0145 31.2154 13.0129 30.9192 10.2852 29.7886C7.55758 28.6582 5.22652 26.7442 3.58688 24.2886C1.94725 21.8331 1.07272 18.9466 1.07394 15.9939C1.08002 12.0387 2.65389 8.24731 5.45062 5.4506C8.24732 2.65388 12.0387 1.08002 15.9939 1.07393ZM15.9939 1.17706e-06C12.8294 0.00121526 9.7363 0.940786 7.10579 2.6999C4.47527 4.459 2.42547 6.95865 1.21559 9.88273C0.00570649 12.8068 -0.309913 16.024 0.308641 19.1275C0.927196 22.2309 2.45215 25.0813 4.69065 27.3181C6.92915 29.5549 9.78065 31.0776 12.8846 31.6938C15.9885 32.3099 19.2054 31.9918 22.1286 30.7797C25.0518 29.5677 27.5499 27.5158 29.307 24.884C31.064 22.2522 32.0013 19.1584 32 15.9939C31.9992 13.8927 31.5846 11.8123 30.7798 9.8714C29.9749 7.93049 28.7957 6.16712 27.3094 4.68195C25.823 3.19678 24.0589 2.01891 22.1173 1.21558C20.1758 0.41225 18.095 -0.000804743 15.9939 1.17706e-06Z" fill="#221D34" style="fill:#221D34;fill:color(display-p3 0.1333 0.1137 0.2039);fill-opacity:1;"/>
</svg>
